Crash 2004 720p Blu-ray H.264

Format                         : MPEG-4
Format profile                 : Base Media / Version 2
Codec ID                       : mp42
File size                      : 733 MiB
Duration                       : 1h 55mn
Overall bit rate mode          : Variable
Overall bit rate               : 891 Kbps
Encoded date                   : UTC 2012-04-26 15:40:32
Tagged date                    : UTC 2012-04-26 22:04:11
Writing application            : HandBrake 0.9.6 2012022800

Video
ID                             : 1
Format                         : AVC
Format/Info                    : Advanced Video Codec
Format profile                 : Main@L3.1
Format settings, CABAC         : Yes
Format settings, ReFrames      : 4 frames
Codec ID                       : avc1
Codec ID/Info                  : Advanced Video Coding
Duration                       : 1h 55mn
Bit rate mode                  : Variable
Bit rate                       : 725 Kbps
Width                          : 1 280 pixels
Height                         : 542 pixels
Display aspect ratio           : 2.35:1
Frame rate mode                : Variable
Frame rate                     : 23.976 fps
Minimum frame rate             : 23.974 fps
Maximum frame rate             : 23.981 fps
Color space                    : YUV
Chroma subsampling             : 4:2:0
Bit depth                      : 8 bits
Scan type                      : Progressive
Bits/(Pixel*Frame)             : 0.044
Stream size                    : 597 MiB (81%)
Writing library                : x264 core 120
Encoding settings              : cabac=1 / ref=2 / deblock=1:0:0
Encoded date                   : UTC 2012-04-26 15:40:32
Tagged date                    : UTC 2012-04-26 22:04:11
Color primaries                : BT.709-5, BT.1361, IEC 61966-2-4, SMPTE RP177
Transfer characteristics       : BT.709-5, BT.1361
Matrix coefficients            : BT.709-5, BT.1361, IEC 61966-2-4 709, SMPTE RP177

Audio
ID                             : 2
Format                         : AAC
Format/Info                    : Advanced Audio Codec
Format profile                 : LC
Codec ID                       : 40
Duration                       : 1h 55mn
Bit rate mode                  : Variable
Bit rate                       : 160 Kbps
Maximum bit rate               : 286 Kbps
Channel(s)                     : 2 channels
Channel positions              : Front: L R
Sampling rate                  : 48.0 KHz
Compression mode               : Lossy
Stream size                    : 132 MiB (18%)
Encoded date                   : UTC 2012-04-26 15:40:32
Tagged date                    : UTC 2012-04-26 22:04:10

Enjoy + Seed